<svg width="16" height="17" viewBox="0 0 16 17" fill="none" xmlns="http://www.w3.org/2000/svg">
    <path fill-rule="evenodd" clip-rule="evenodd" d="M12 0C12.4142 0 12.75 0.335786 12.75 0.75V1.10583C13.1338 1.16711 13.4848 1.26722 13.816 1.43597C14.5686 1.81947 15.1805 2.43139 15.564 3.18404C15.804 3.655 15.9052 4.16601 15.9532 4.75433C16 5.3269 16 6.03494 16 6.91752V6.91754V6.91756V6.91758V6.9176V11.0824V11.0824V11.0824V11.0825V11.0825C16 11.9651 16 12.6731 15.9532 13.2457C15.9052 13.834 15.804 14.345 15.564 14.816C15.1805 15.5686 14.5686 16.1805 13.816 16.564C13.345 16.804 12.834 16.9052 12.2457 16.9532C11.6731 17 10.965 17 10.0823 17H5.91766C5.03501 17 4.32693 17 3.75433 16.9532C3.16601 16.9052 2.655 16.804 2.18404 16.564C1.43139 16.1805 0.819468 15.5686 0.435974 14.816C0.19601 14.345 0.0948379 13.834 0.0467698 13.2457C-1.2245e-05 12.6731 -6.70475e-06 11.965 1.65938e-07 11.0824V6.91762C-6.70475e-06 6.035 -1.2245e-05 5.32692 0.0467698 4.75433C0.0948379 4.16601 0.19601 3.655 0.435974 3.18404C0.819468 2.43139 1.43139 1.81947 2.18404 1.43597C2.51523 1.26722 2.86623 1.16711 3.25 1.10583V0.75C3.25 0.335786 3.58579 0 4 0C4.41421 0 4.75 0.335786 4.75 0.75V1.00536C5.10097 0.999994 5.48868 0.999997 5.91761 1H5.91762H5.91762H10.0824C10.5113 0.999997 10.899 0.999994 11.25 1.00536V0.75C11.25 0.335786 11.5858 0 12 0ZM3.25 2.63402V2.75C3.25 3.16421 3.58579 3.5 4 3.5C4.41421 3.5 4.75 3.16421 4.75 2.75V2.50554C5.09152 2.50015 5.48586 2.5 5.95 2.5H10.05C10.5141 2.5 10.9085 2.50015 11.25 2.50554V2.75C11.25 3.16421 11.5858 3.5 12 3.5C12.4142 3.5 12.75 3.16421 12.75 2.75V2.63402C12.904 2.67155 13.0272 2.71759 13.135 2.77248C13.6054 3.01217 13.9878 3.39462 14.2275 3.86502C14.3418 4.08928 14.4177 4.38092 14.4582 4.87648C14.4881 5.24238 14.4966 5.68325 14.499 6.25H1.50096C1.50338 5.68325 1.51189 5.24238 1.54179 4.87648C1.58228 4.38092 1.65822 4.08928 1.77248 3.86502C2.01217 3.39462 2.39462 3.01217 2.86502 2.77248C2.97275 2.71759 3.09603 2.67155 3.25 2.63402ZM1.5 7.75H14.5V11.05C14.5 11.9725 14.4994 12.6192 14.4582 13.1235C14.4177 13.6191 14.3418 13.9107 14.2275 14.135C13.9878 14.6054 13.6054 14.9878 13.135 15.2275C12.9107 15.3418 12.6191 15.4177 12.1235 15.4582C11.6192 15.4994 10.9725 15.5 10.05 15.5H5.95C5.02754 15.5 4.3808 15.4994 3.87648 15.4582C3.38092 15.4177 3.08928 15.3418 2.86502 15.2275C2.39462 14.9878 2.01217 14.6054 1.77248 14.135C1.65822 13.9107 1.58228 13.6191 1.54179 13.1235C1.50058 12.6192 1.5 11.9725 1.5 11.05V7.75ZM11.75 14C12.4404 14 13 13.4404 13 12.75C13 12.0596 12.4404 11.5 11.75 11.5C11.0596 11.5 10.5 12.0596 10.5 12.75C10.5 13.4404 11.0596 14 11.75 14Z" fill="#4277FA"/>
</svg>
