<?xml version="1.0" standalone="no"?>
<!DOCTYPE svg PUBLIC "-//W3C//DTD SVG 20010904//EN"
 "http://www.w3.org/TR/2001/REC-SVG-20010904/DTD/svg10.dtd">
<svg version="1.0" xmlns="http://www.w3.org/2000/svg"
 width="260.000000pt" height="260.000000pt" viewBox="0 0 260.000000 260.000000"
 preserveAspectRatio="xMidYMid meet">
<metadata>
Created by potrace 1.14, written by Peter Selinger 2001-2017
</metadata>
<g transform="translate(0.000000,260.000000) scale(0.100000,-0.100000)"
fill="#000000" stroke="none">
<path d="M945 2580 c-38 -10 -88 -26 -110 -35 -67 -29 -173 -104 -215 -154
-34 -40 -50 -50 -112 -69 -257 -80 -427 -255 -489 -502 -34 -134 -16 -300 45
-423 l24 -50 -29 -57 c-43 -85 -58 -153 -55 -255 5 -170 78 -310 217 -417 42
-32 44 -36 46 -88 2 -60 24 -126 61 -182 52 -80 186 -154 287 -159 43 -3 53
-8 100 -55 142 -143 384 -175 552 -73 l31 20 46 -26 c171 -96 399 -62 543 81
48 47 60 54 94 54 22 0 67 9 101 21 129 43 210 129 243 256 9 34 15 65 14 70
-6 34 4 60 29 75 42 25 112 98 148 154 57 88 78 165 78 279 -1 123 -7 152 -54
246 l-28 56 25 52 c76 152 79 369 9 535 -48 114 -160 241 -275 311 -60 36
-182 85 -212 85 -9 0 -51 33 -93 74 -42 41 -89 81 -104 89 -15 7 -43 23 -64
35 -103 59 -304 86 -435 59 -50 -11 -74 -11 -120 -2 -86 18 -217 16 -298 -5z
m232 -213 c3 -3 4 -854 3 -1919 l0 -176 -42 -20 c-117 -56 -235 -16 -297 99
-25 46 -64 73 -103 71 -164 -6 -179 -2 -219 61 -16 26 -19 42 -14 82 14 113
14 115 -11 145 -14 15 -46 39 -72 51 -105 51 -184 172 -184 284 -1 239 254
397 485 300 61 -25 131 -2 155 51 36 78 -4 139 -114 174 -142 44 -312 35 -434
-24 -30 -14 -57 -26 -60 -26 -12 0 -32 102 -32 158 0 140 75 278 196 362 50
34 131 68 183 76 91 14 101 20 146 82 62 87 164 154 256 168 20 3 37 7 39 9 4
3 114 -4 119 -8z m432 -7 c97 -30 170 -82 232 -166 41 -56 41 -56 179 -89 310
-75 446 -450 251 -695 -90 -113 -203 -170 -361 -185 -35 -3 -74 -12 -87 -20
-74 -49 -59 -167 26 -196 32 -11 136 -7 199 7 81 19 202 71 263 115 17 12 32
19 35 16 12 -12 19 -98 12 -145 -17 -106 -76 -184 -185 -242 -79 -43 -102 -82
-84 -147 21 -82 7 -133 -48 -172 -90 -65 -213 -9 -227 103 -10 70 -54 116
-113 116 -57 0 -87 -17 -109 -61 -38 -76 4 -215 88 -299 27 -27 16 -41 -49
-63 -55 -18 -112 -13 -168 14 l-43 21 0 1048 0 1049 23 3 c38 6 128 -1 166
-12z"/>
<path d="M845 2051 c-16 -11 -41 -32 -55 -47 -30 -33 -71 -51 -136 -60 -99
-13 -133 -51 -124 -139 1 -11 14 -33 30 -49 50 -51 167 -46 290 12 65 31 165
126 172 163 8 42 -14 91 -51 116 -41 28 -86 29 -126 4z"/>
<path d="M591 1137 c-35 -18 -64 -62 -64 -97 0 -45 21 -77 73 -109 94 -58 163
-147 206 -265 24 -67 50 -92 103 -100 69 -10 131 41 131 108 0 90 -93 259
-195 355 -113 105 -193 139 -254 108z"/>
<path d="M1640 2021 c-57 -37 -69 -83 -46 -168 27 -96 67 -163 141 -239 103
-105 245 -172 322 -152 41 11 83 65 83 107 0 49 -31 84 -97 110 -126 51 -189
121 -226 251 -9 31 -27 66 -39 78 -31 28 -104 36 -138 13z"/>
</g>
</svg>
